<svg version="1.1" xmlns="http://www.w3.org/2000/svg" xmlns:xlink="http://www.w3.org/1999/xlink" width="800" height="800"><defs/><g transform="scale(2,2)"><g id="background-d94198a6"><rect fill="white" stroke="none" x="0" y="0" width="400" height="400" class="dcg-svg-background"/></g><g id="background-images-d94198a6"/><g id="graphpaper-d94198a6"><g id="grid-d94198a6"><g><path fill="none" stroke="rgb(0,0,0)" class="dcg-svg-minor-gridline" paint-order="fill stroke markers" d=" M 2.5 0 L 2.5 400" stroke-opacity="0.2" stroke-miterlimit="10" stroke-dasharray=""/><path fill="none" stroke="rgb(0,0,0)" class="dcg-svg-minor-gridline" paint-order="fill stroke markers" d=" M 52.5 0 L 52.5 400" stroke-opacity="0.2" stroke-miterlimit="10" stroke-dasharray=""/><path fill="none" stroke="rgb(0,0,0)" class="dcg-svg-minor-gridline" paint-order="fill stroke markers" d=" M 77.5 0 L 77.5 400" stroke-opacity="0.2" stroke-miterlimit="10" stroke-dasharray=""/><path fill="none" stroke="rgb(0,0,0)" class="dcg-svg-minor-gridline" paint-order="fill stroke markers" d=" M 102.5 0 L 102.5 400" stroke-opacity="0.2" stroke-miterlimit="10" stroke-dasharray=""/><path fill="none" stroke="rgb(0,0,0)" class="dcg-svg-minor-gridline" paint-order="fill stroke markers" d=" M 128.5 0 L 128.5 400" stroke-opacity="0.2" stroke-miterlimit="10" stroke-dasharray=""/><path fill="none" stroke="rgb(0,0,0)" class="dcg-svg-minor-gridline" paint-order="fill stroke markers" d=" M 153.5 0 L 153.5 400" stroke-opacity="0.2" stroke-miterlimit="10" stroke-dasharray=""/><path fill="none" stroke="rgb(0,0,0)" class="dcg-svg-minor-gridline" paint-order="fill stroke markers" d=" M 178.5 0 L 178.5 400" stroke-opacity="0.2" stroke-miterlimit="10" stroke-dasharray=""/><path fill="none" stroke="rgb(0,0,0)" class="dcg-svg-minor-gridline" paint-order="fill stroke markers" d=" M 203.5 0 L 203.5 400" stroke-opacity="0.2" stroke-miterlimit="10" stroke-dasharray=""/><path fill="none" stroke="rgb(0,0,0)" class="dcg-svg-minor-gridline" paint-order="fill stroke markers" d=" M 228.5 0 L 228.5 400" stroke-opacity="0.2" stroke-miterlimit="10" stroke-dasharray=""/><path fill="none" stroke="rgb(0,0,0)" class="dcg-svg-minor-gridline" paint-order="fill stroke markers" d=" M 253.5 0 L 253.5 400" stroke-opacity="0.2" stroke-miterlimit="10" stroke-dasharray=""/><path fill="none" stroke="rgb(0,0,0)" class="dcg-svg-minor-gridline" paint-order="fill stroke markers" d=" M 279.5 0 L 279.5 400" stroke-opacity="0.2" stroke-miterlimit="10" stroke-dasharray=""/><path fill="none" stroke="rgb(0,0,0)" class="dcg-svg-minor-gridline" paint-order="fill stroke markers" d=" M 304.5 0 L 304.5 400" stroke-opacity="0.2" stroke-miterlimit="10" stroke-dasharray=""/><path fill="none" stroke="rgb(0,0,0)" class="dcg-svg-minor-gridline" paint-order="fill stroke markers" d=" M 329.5 0 L 329.5 400" stroke-opacity="0.2" stroke-miterlimit="10" stroke-dasharray=""/><path fill="none" stroke="rgb(0,0,0)" class="dcg-svg-minor-gridline" paint-order="fill stroke markers" d=" M 354.5 0 L 354.5 400" stroke-opacity="0.2" stroke-miterlimit="10" stroke-dasharray=""/><path fill="none" stroke="rgb(0,0,0)" class="dcg-svg-minor-gridline" paint-order="fill stroke markers" d=" M 379.5 0 L 379.5 400" stroke-opacity="0.2" stroke-miterlimit="10" stroke-dasharray=""/><path fill="none" stroke="rgb(0,0,0)" class="dcg-svg-minor-gridline" paint-order="fill stroke markers" d=" M 0 339.5 L 400 339.5" stroke-opacity="0.2" stroke-miterlimit="10" stroke-dasharray=""/><path fill="none" stroke="rgb(0,0,0)" class="dcg-svg-minor-gridline" paint-order="fill stroke markers" d=" M 0 302.5 L 400 302.5" stroke-opacity="0.2" stroke-miterlimit="10" stroke-dasharray=""/><path fill="none" stroke="rgb(0,0,0)" class="dcg-svg-minor-gridline" paint-order="fill stroke markers" d=" M 0 266.5 L 400 266.5" stroke-opacity="0.2" stroke-miterlimit="10" stroke-dasharray=""/><path fill="none" stroke="rgb(0,0,0)" class="dcg-svg-minor-gridline" paint-order="fill stroke markers" d=" M 0 229.5 L 400 229.5" stroke-opacity="0.2" stroke-miterlimit="10" stroke-dasharray=""/><path fill="none" stroke="rgb(0,0,0)" class="dcg-svg-minor-gridline" paint-order="fill stroke markers" d=" M 0 192.5 L 400 192.5" stroke-opacity="0.2" stroke-miterlimit="10" stroke-dasharray=""/><path fill="none" stroke="rgb(0,0,0)" class="dcg-svg-minor-gridline" paint-order="fill stroke markers" d=" M 0 156.5 L 400 156.5" stroke-opacity="0.2" stroke-miterlimit="10" stroke-dasharray=""/><path fill="none" stroke="rgb(0,0,0)" class="dcg-svg-minor-gridline" paint-order="fill stroke markers" d=" M 0 119.5 L 400 119.5" stroke-opacity="0.2" stroke-miterlimit="10" stroke-dasharray=""/><path fill="none" stroke="rgb(0,0,0)" class="dcg-svg-minor-gridline" paint-order="fill stroke markers" d=" M 0 82.5 L 400 82.5" stroke-opacity="0.2" stroke-miterlimit="10" stroke-dasharray=""/><path fill="none" stroke="rgb(0,0,0)" class="dcg-svg-minor-gridline" paint-order="fill stroke markers" d=" M 0 46.5 L 400 46.5" stroke-opacity="0.2" stroke-miterlimit="10" stroke-dasharray=""/><path fill="none" stroke="rgb(0,0,0)" class="dcg-svg-minor-gridline" paint-order="fill stroke markers" d=" M 0 9.5 L 400 9.5" stroke-opacity="0.2" stroke-miterlimit="10" stroke-dasharray=""/><path fill="none" stroke="rgb(0,0,0)" class="dcg-svg-major-gridline" paint-order="fill stroke markers" d=" M 128.5 0 L 128.5 400" stroke-opacity="0.2500000000000001" stroke-miterlimit="10" stroke-dasharray=""/><path fill="none" stroke="rgb(0,0,0)" class="dcg-svg-major-gridline" paint-order="fill stroke markers" d=" M 228.5 0 L 228.5 400" stroke-opacity="0.2500000000000001" stroke-miterlimit="10" stroke-dasharray=""/><path fill="none" stroke="rgb(0,0,0)" class="dcg-svg-major-gridline" paint-order="fill stroke markers" d=" M 329.5 0 L 329.5 400" stroke-opacity="0.2500000000000001" stroke-miterlimit="10" stroke-dasharray=""/><path fill="none" stroke="rgb(0,0,0)" class="dcg-svg-major-gridline" paint-order="fill stroke markers" d=" M 0 192.5 L 400 192.5" stroke-opacity="0.2500000000000001" stroke-miterlimit="10" stroke-dasharray=""/><path fill="none" stroke="rgb(0,0,0)" class="dcg-svg-major-gridline" paint-order="fill stroke markers" d=" M 0 9.5 L 400 9.5" stroke-opacity="0.2500000000000001" stroke-miterlimit="10" stroke-dasharray=""/></g></g><g id="axis-d94198a6"><g id="yaxis-d94198a6"><title>Approximate Gigabytes</title><path fill="none" stroke="rgb(0,0,0)" class="dcg-svg-axis-line" paint-order="fill stroke markers" d=" M 28 0 L 28 400" stroke-opacity="0.9" stroke-miterlimit="10" stroke-width="1.5" stroke-dasharray=""/></g><g id="xaxis-d94198a6"><title>Border Length, Squared</title><path fill="none" stroke="rgb(0,0,0)" class="dcg-svg-axis-line" paint-order="fill stroke markers" d=" M 0 377 L 400 377" stroke-opacity="0.9" stroke-miterlimit="10" stroke-width="1.5" stroke-dasharray=""/></g><g><g class="dcg-svg-axis-value"><text fill="none" stroke="#ffffff" font-family="Arial" font-size="14px" font-style="normal" font-weight="normal" text-decoration="normal" x="18.814502562187613" y="392.31881024591667" text-anchor="middle" stroke-miterlimit="2" stroke-width="3" stroke-dasharray="">0</text><text fill="#000000" stroke="none" font-family="Arial" font-size="14px" font-style="normal" font-weight="normal" text-decoration="normal" x="18.814502562187613" y="392.31881024591667" text-anchor="middle">0</text></g><g class="dcg-svg-axis-value"><text fill="none" stroke="#ffffff" font-family="Arial" font-size="14px" font-style="normal" font-weight="normal" text-decoration="normal" x="128.50677629277374" y="392.31881024591667" text-anchor="middle" stroke-miterlimit="2" stroke-width="3" stroke-dasharray="">50000</text><text fill="#000000" stroke="none" font-family="Arial" font-size="14px" font-style="normal" font-weight="normal" text-decoration="normal" x="128.50677629277374" y="392.31881024591667" text-anchor="middle">50000</text></g><g class="dcg-svg-axis-value"><text fill="none" stroke="#ffffff" font-family="Arial" font-size="14px" font-style="normal" font-weight="normal" text-decoration="normal" x="229.29904992799243" y="392.31881024591667" text-anchor="middle" stroke-miterlimit="2" stroke-width="3" stroke-dasharray="">100000</text><text fill="#000000" stroke="none" font-family="Arial" font-size="14px" font-style="normal" font-weight="normal" text-decoration="normal" x="229.29904992799243" y="392.31881024591667" text-anchor="middle">100000</text></g><g class="dcg-svg-axis-value"><text fill="none" stroke="#ffffff" font-family="Arial" font-size="14px" font-style="normal" font-weight="normal" text-decoration="normal" x="330.0913235632111" y="392.31881024591667" text-anchor="middle" stroke-miterlimit="2" stroke-width="3" stroke-dasharray="">150000</text><text fill="#000000" stroke="none" font-family="Arial" font-size="14px" font-style="normal" font-weight="normal" text-decoration="normal" x="330.0913235632111" y="392.31881024591667" text-anchor="middle">150000</text></g><g class="dcg-svg-axis-value"><text fill="none" stroke="#ffffff" font-family="Arial" font-size="14px" font-style="normal" font-weight="normal" text-decoration="normal" x="14.699999809265137" y="197.17606670715043" text-anchor="middle" stroke-miterlimit="2" stroke-width="3" stroke-dasharray="">500</text><text fill="rgb(150,150,150)" stroke="none" font-family="Arial" font-size="14px" font-style="normal" font-weight="normal" text-decoration="normal" x="14.699999809265137" y="197.17606670715043" text-anchor="middle" fill-opacity="1">500</text></g><g class="dcg-svg-axis-value"><text fill="none" stroke="#ffffff" font-family="Arial" font-size="14px" font-style="normal" font-weight="normal" text-decoration="normal" x="18.600000381469727" y="14.033323168384193" text-anchor="middle" stroke-miterlimit="2" stroke-width="3" stroke-dasharray="">1000</text><text fill="rgb(150,150,150)" stroke="none" font-family="Arial" font-size="14px" font-style="normal" font-weight="normal" text-decoration="normal" x="18.600000381469727" y="14.033323168384193" text-anchor="middle" fill-opacity="1">1000</text></g></g><g class="dcg-svg-axis-label"><text fill="none" stroke="#ffffff" font-family="Arial" font-size="17px" font-style="normal" font-weight="normal" text-decoration="normal" x="203.3333282470703" y="368.5108102459167" text-anchor="start" stroke-miterlimit="2" stroke-width="3" stroke-dasharray="">Border Length, Squared</text><text fill="#000000" stroke="none" font-family="Arial" font-size="17px" font-style="normal" font-weight="normal" text-decoration="normal" x="203.3333282470703" y="368.5108102459167" text-anchor="start">Border Length, Squared</text></g><g class="dcg-svg-axis-label" transform="translate(48.20000076293945,191.8333282470703) rotate(-90,0,0)"><text fill="none" stroke="#ffffff" font-family="Arial" font-size="17px" font-style="normal" font-weight="normal" text-decoration="normal" x="0" y="0" text-anchor="start" stroke-miterlimit="2" stroke-width="3" stroke-dasharray="">Approximate Gigabytes</text><text fill="#000000" stroke="none" font-family="Arial" font-size="17px" font-style="normal" font-weight="normal" text-decoration="normal" x="0" y="0" text-anchor="start">Approximate Gigabytes</text></g></g></g><g id="expressions-d94198a6"><g id="sketch-d94198a6"><title>Expression 4</title><path fill="#c74440" stroke="none" paint-order="stroke fill markers" d="" fill-opacity="0.4"/><g><path fill="none" stroke="#c74440" class="dcg-svg-curve" paint-order="fill stroke markers" d=" M 27.224268282555045 376.0108095668187 L 27.224268282555045 376.0108095668187 L 31.51048007246917 375.8793918062628 L 35.806457487383305 375.48513648730113 L 40.10243490229744 374.82804428903177 L 44.398412317211566 373.90811521145463 L 48.6943897321257 372.7253492545698 L 52.99036714703983 371.27974641837716 L 57.28634456195395 369.57130670287677 L 61.58232197686808 367.6000301080686 L 65.87829939178222 365.3659166339528 L 70.17427680669634 362.86896628052915 L 74.47025422161047 360.10917904779774 L 78.76623163652461 357.0865549357586 L 83.06220905143874 353.8010939444117 L 87.35818646635288 350.2527960737571 L 91.654163881267 346.44166132379473 L 95.95014129618113 342.3676896945246 L 100.24611871109525 338.0308811859467 L 104.5420961260094 333.4312357980611 L 108.83807354092352 328.5687535308677 L 113.13405095583765 323.4434343843666 L 117.43002837075178 318.0552783585577 L 121.7260057856659 312.40428545344105 L 126.02198320058004 306.4904556690167 L 130.3179606154942 300.31378900528455 L 134.61393803040832 293.87428546224464 L 138.90991544532244 287.171945039897 L 143.20589286023656 280.20676773824164 L 147.50187027515068 272.9787535572785 L 151.79784769006483 265.4879024970076 L 156.09382510497895 257.734214557429 L 160.38980251989307 249.71768973854262 L 164.6857799348072 241.43832804034847 L 168.9817573497213 232.89612946284663 L 173.27773476463543 224.09109400603697 L 177.5737121795496 215.02322166991954 L 181.86968959446372 205.69251245449445 L 186.16566700937784 196.09896635976153 L 190.46164442429196 186.24258338572088 L 194.7576218392061 176.1233635323725 L 199.05359925412026 165.7413067997163 L 203.34957666903438 155.0964131877524 L 207.6455540839485 144.1886826964808 L 211.94153149886262 133.01811532590148 L 216.23750891377676 121.58471107601434 L 220.5334863286909 109.88846994681938 L 224.829463743605 97.92939193831677 L 229.12544115851915 85.70747705050633 L 233.4214185734333 73.22272528338817 L 237.71739598834742 60.47513663696236 L 242.01337340326157 47.46471111122861 L 246.30935081817566 34.19144870618737 L 250.6053282330898 20.65534942183814 L 254.9013056480039 6.8564132581813055 L 258.6762828236632 -5.5" stroke-linecap="round" stroke-linejoin="round" stroke-miterlimit="10" stroke-width="2.5" stroke-opacity="0.9" stroke-dasharray=""/></g></g><g id="sketch-d94198a6"><title>Expression 5</title><path fill="#2d70b3" stroke="none" paint-order="stroke fill markers" d="" fill-opacity="0.4"/><g><path fill="none" stroke="#2d70b3" class="dcg-svg-curve" paint-order="fill stroke markers" d=" M 168.3236857468612 399.5 L 168.3236857468612 392.9 M 168.3236857468612 388.7 L 168.3236857468612 382.09999999999997 M 168.3236857468612 377.9 L 168.3236857468612 371.29999999999995 M 168.3236857468612 367.09999999999997 L 168.3236857468612 360.49999999999994 M 168.3236857468612 356.29999999999995 L 168.3236857468612 349.69999999999993 M 168.3236857468612 345.49999999999994 L 168.3236857468612 338.8999999999999 M 168.3236857468612 334.69999999999993 L 168.3236857468612 328.0999999999999 M 168.3236857468612 323.8999999999999 L 168.3236857468612 317.2999999999999 M 168.3236857468612 313.0999999999999 L 168.3236857468612 306.4999999999999 M 168.3236857468612 302.2999999999999 L 168.3236857468612 295.6999999999999 M 168.3236857468612 291.4999999999999 L 168.3236857468612 284.89999999999986 M 168.3236857468612 280.6999999999999 L 168.3236857468612 274.09999999999985 M 168.3236857468612 269.89999999999986 L 168.3236857468612 263.29999999999984 M 168.3236857468612 259.09999999999985 L 168.3236857468612 252.49999999999986 M 168.3236857468612 248.29999999999987 L 168.3236857468612 241.69999999999987 M 168.3236857468612 237.4999999999999 L 168.3236857468612 230.8999999999999 M 168.3236857468612 226.6999999999999 L 168.3236857468612 220.0999999999999 M 168.3236857468612 215.89999999999992 L 168.3236857468612 209.29999999999993 M 168.3236857468612 205.09999999999994 L 168.3236857468612 198.49999999999994 M 168.3236857468612 194.29999999999995 L 168.3236857468612 187.69999999999996 M 168.3236857468612 183.49999999999997 L 168.3236857468612 176.89999999999998 M 168.3236857468612 172.7 L 168.3236857468612 166.1 M 168.3236857468612 161.9 L 168.3236857468612 155.3 M 168.3236857468612 151.10000000000002 L 168.3236857468612 144.50000000000003 M 168.3236857468612 140.30000000000004 L 168.3236857468612 133.70000000000005 M 168.3236857468612 129.50000000000006 L 168.3236857468612 122.90000000000006 M 168.3236857468612 118.70000000000006 L 168.3236857468612 112.10000000000007 M 168.3236857468612 107.90000000000006 L 168.3236857468612 101.30000000000007 M 168.3236857468612 97.10000000000007 L 168.3236857468612 90.50000000000007 M 168.3236857468612 86.30000000000007 L 168.3236857468612 79.70000000000007 M 168.3236857468612 75.50000000000007 L 168.3236857468612 68.90000000000008 M 168.3236857468612 64.70000000000007 L 168.3236857468612 58.10000000000007 M 168.3236857468612 53.90000000000008 L 168.3236857468612 47.300000000000075 M 168.3236857468612 43.10000000000008 L 168.3236857468612 36.50000000000008 M 168.3236857468612 32.30000000000008 L 168.3236857468612 25.70000000000008 M 168.3236857468612 21.50000000000008 L 168.3236857468612 14.900000000000082 M 168.3236857468612 10.700000000000083 L 168.3236857468612 4.100000000000083 M 168.3236857468612 -0.09999999999991616 L 168.3236857468612 -0.5" stroke-linecap="round" stroke-linejoin="round" stroke-miterlimit="10" stroke-width="1.5" stroke-opacity="0.9" stroke-dasharray=""/></g></g></g><g id="labels-d94198a6"/></g></svg>
